# xmcd
#
# Track frame offsets:
#	150
#	18080
#	31720
#	45269
#	58008
#	74886
#	92881
#	111869
#	126189
#	144587
#	156807
#	175423
#	184543
#	198516
#	209027
#
# Disc length: 3061 seconds
#
# Revision: 0
# Processed by: cddbd v1.4PL0 Copyright (c) Steve Scherf et al.
# Submitted via: dBpowerAMP V4.0
#
DISCID=d70bf30f
DTITLE=Santiago Campillo and Miguel Bañon - Santiago Campillo and Miguel Bañon
DYEAR=2000
DGENRE=Blues
TTITLE0=You Better Think Twice
TTITLE1=Hallelyja, I Love Her So
TTITLE2=Ramblin' Man
TTITLE3=Willin
TTITLE4=Moondane
TTITLE5=Can't find Miy Way Home
TTITLE6=You got me Runnig
TTITLE7=She's A woman
TTITLE8=Little Wing
TTITLE9=Slow Down
TTITLE10=Mistery Train
TTITLE11=Love in Vain
TTITLE12=The Loop
TTITLE13=Memphis
TTITLE14=My My, Hey Hey
EXTD=Santiago Campillo and Miguel Bañon Acustico
EXTT0=
EXTT1=
EXTT2=
EXTT3=
EXTT4=
EXTT5=
EXTT6=
EXTT7=
EXTT8=
EXTT9=
EXTT10=
EXTT11=
EXTT12=
EXTT13=
EXTT14=
PLAYORDER=
